<?xml version="1.0" encoding="iso-8859-1"?>
<!-- Uploaded to: SVG Repo, www.svgrepo.com, Generator: SVG Repo Mixer Tools -->
<svg height="800px" width="800px" version="1.1" id="Layer_1" xmlns="http://www.w3.org/2000/svg" xmlns:xlink="http://www.w3.org/1999/xlink" 
	 viewBox="0 0 512 512" xml:space="preserve">
<path style="fill:#A7C7FC;" d="M488.727,0H256v512h232.727C501.58,512,512,501.58,512,488.727V23.273C512,10.42,501.58,0,488.727,0z
	"/>
<path style="fill:#C4D9FD;" d="M23.273,0C10.42,0,0,10.42,0,23.273v465.455C0,501.58,10.42,512,23.273,512H256V0H23.273z"/>
<path style="fill:#5286FA;" d="M301.605,396.577c4.544,4.546,10.501,6.817,16.455,6.817s11.913-2.271,16.455-6.817
	c9.089-9.087,9.089-23.824,0-32.912L226.852,256l107.664-107.667c9.089-9.087,9.089-23.824,0-32.912
	c-9.087-9.087-23.824-9.089-32.912,0L177.482,239.545c-4.364,4.364-6.817,10.285-6.817,16.457c0,6.173,2.451,12.093,6.817,16.455
	L301.605,396.577z"/>
</svg>