<?xml version="1.0" encoding="utf-8"?>
<!-- Uploaded to: SVG Repo, www.svgrepo.com, Generator: SVG Repo Mixer Tools -->
<svg xmlns="http://www.w3.org/2000/svg" xmlns:xlink="http://www.w3.org/1999/xlink" version="1.1" id="westeastwind"  viewBox="0 0 199.6146 200" enable-background="new 0 0 199.6146 200" xml:space="preserve" width="512" height="512">
<g>
	<path fill="#D0E8FF" d="M91.6146,56c11.8689,0,21.7253-8.6675,23.6387-20H87.6146v-8h27.6387   c-1.9133-11.3325-11.7698-20-23.6387-20c-13.2344,0-24,10.7656-24,24S78.3802,56,91.6146,56z"/>
	<path fill="#1C71DA" d="M91.6146,64c17.6445,0,32-14.3555,32-32s-14.3555-32-32-32s-32,14.3555-32,32S73.9701,64,91.6146,64z    M91.6146,8c11.8689,0,21.7253,8.6675,23.6387,20H87.6146v8h27.6387c-1.9133,11.3325-11.7698,20-23.6387,20   c-13.2344,0-24-10.7656-24-24S78.3802,8,91.6146,8z"/>
	<path fill="#1C71DA" d="M159.6146,136c2.209,0,4-1.791,4-4s-1.791-4-4-4h-52.1543c-2.209,0-4,1.791-4,4s1.791,4,4,4H159.6146z"/>
	<path fill="#1C71DA" d="M83.6146,132c0-2.209-1.791-4-4-4H27.4603c-2.209,0-4,1.791-4,4s1.791,4,4,4h52.1543   C81.8236,136,83.6146,134.209,83.6146,132z"/>
	<path fill="#1C71DA" d="M31.6146,104h120c2.209,0,4-1.791,4-4s-1.791-4-4-4h-120c-2.209,0-4,1.791-4,4S29.4056,104,31.6146,104z"/>
	<path fill="#1C71DA" d="M169.472,144c-0.3293,0-0.6223,0.1123-0.9287,0.1875c-0.3064-0.0752-0.5994-0.1875-0.9287-0.1875h-114   c-2.209,0-4,1.791-4,4s1.791,4,4,4h114c0.3293,0,0.6223-0.1123,0.9287-0.1875c0.3064,0.0752,0.5994,0.1875,0.9287,0.1875   c5.5918,0,10.1426,5.3828,10.1426,12s-4.5508,12-10.1426,12c-2.209,0-4,1.791-4,4s1.791,4,4,4c10.0039,0,18.1426-8.9727,18.1426-20   S179.4759,144,169.472,144z"/>
	<path fill="#1C71DA" d="M121.472,160c-0.3293,0-0.6223,0.1123-0.9287,0.1875c-0.3064-0.0752-0.5994-0.1875-0.9287-0.1875h-60   c-2.209,0-4,1.791-4,4s1.791,4,4,4h60c0.3293,0,0.6223-0.1123,0.9287-0.1875c0.3064,0.0752,0.5994,0.1875,0.9287,0.1875   c5.5918,0,10.1426,5.3828,10.1426,12s-4.5508,12-10.1426,12c-2.209,0-4,1.791-4,4s1.791,4,4,4c10.0039,0,18.1426-8.9727,18.1426-20   S131.4759,160,121.472,160z"/>
	<path fill="#1C71DA" d="M181.472,80c-2.209,0-4,1.791-4,4s1.791,4,4,4c5.5918,0,10.1426,5.3828,10.1426,12s-4.5508,12-10.1426,12   c-0.3293,0-0.6223,0.1123-0.9287,0.1875c-0.3064-0.0752-0.5994-0.1875-0.9287-0.1875h-168c-2.209,0-4,1.791-4,4s1.791,4,4,4h168   c0.3293,0,0.6223-0.1123,0.9287-0.1875c0.3064,0.0752,0.5994,0.1875,0.9287,0.1875c10.0039,0,18.1426-8.9727,18.1426-20   S191.4759,80,181.472,80z"/>
</g>
<path fill="#FF5D5D" d="M8,58.8322c-1.0239,0-2.0474-0.3906-2.8286-1.1714c-1.562-1.5625-1.562-4.0947,0-5.6572l14.1421-14.1421  c1.5625-1.5615,4.0947-1.5615,5.6572,0c1.562,1.5625,1.562,4.0947,0,5.6572L10.8286,57.6608  C10.0474,58.4415,9.0239,58.8322,8,58.8322z"/>
<path fill="#FF5D5D" d="M22.1421,58.8322c-1.0239,0-2.0474-0.3906-2.8286-1.1714L5.1714,43.5187  c-1.562-1.5625-1.562-4.0947,0-5.6572c1.5625-1.5615,4.0947-1.5615,5.6572,0l14.1421,14.1421c1.562,1.5625,1.562,4.0947,0,5.6572  C24.1895,58.4415,23.166,58.8322,22.1421,58.8322z"/>
<path fill="#00D40B" d="M14,170.8322c-7.7197,0-14-6.2803-14-14s6.2803-14,14-14s14,6.2803,14,14S21.7197,170.8322,14,170.8322z   M14,150.8322c-3.3086,0-6,2.6914-6,6s2.6914,6,6,6s6-2.6914,6-6S17.3086,150.8322,14,150.8322z"/>
<path fill="#FFC504" d="M175.3135,53.4596L175.3135,53.4596c-1.061,0-2.0781-0.4214-2.8286-1.1719l-11.3135-11.314  c-1.562-1.562-1.562-4.0942,0-5.6567l11.3135-11.3135c1.5625-1.5615,4.0952-1.5615,5.6567,0l11.314,11.3135  c0.7505,0.7505,1.1719,1.7676,1.1719,2.8286s-0.4214,2.0781-1.1714,2.8286l-11.314,11.314  C177.3916,53.0382,176.3745,53.4596,175.3135,53.4596z M169.6567,38.1456l5.6567,5.6572l5.6572-5.6572l-5.6572-5.6567  L169.6567,38.1456z"/>
</svg>